<svg width="1440" height="800" viewBox="0 0 1440 800" fill="none" xmlns="http://www.w3.org/2000/svg">
  <rect width="1440" height="800" fill="#0F172A"/>
  
  <!-- Grid pattern -->
  <pattern id="grid" width="80" height="80" patternUnits="userSpaceOnUse">
    <path d="M 80 0 L 0 0 0 80" fill="none" stroke="#334155" stroke-width="0.5" opacity="0.5"/>
  </pattern>
  <rect width="1440" height="800" fill="url(#grid)"/>
  
  <!-- Gradients and Circles -->
  <circle cx="200" cy="650" r="300" fill="url(#gradient1)" filter="url(#blur)" opacity="0.3"/>
  <circle cx="1240" cy="150" r="250" fill="url(#gradient2)" filter="url(#blur)" opacity="0.3"/>
  <circle cx="720" cy="450" r="400" fill="url(#gradient3)" filter="url(#blur)" opacity="0.2"/>
  
  <!-- Document elements -->
  <rect x="600" y="250" width="240" height="300" rx="8" fill="#1E293B" filter="url(#shadow)"/>
  <rect x="620" y="280" width="200" height="20" rx="2" fill="#94A3B8" opacity="0.6"/>
  <rect x="620" y="320" width="160" height="10" rx="2" fill="#64748B" opacity="0.6"/>
  <rect x="620" y="340" width="180" height="10" rx="2" fill="#64748B" opacity="0.6"/>
  <rect x="620" y="360" width="140" height="10" rx="2" fill="#64748B" opacity="0.6"/>
  <rect x="620" y="390" width="200" height="40" rx="4" fill="#475569" opacity="0.6"/>
  <rect x="620" y="450" width="200" height="1" fill="#94A3B8" opacity="0.2"/>
  <rect x="620" y="470" width="80" height="10" rx="2" fill="#64748B" opacity="0.6"/>
  <rect x="620" y="490" width="120" height="10" rx="2" fill="#64748B" opacity="0.6"/>
  
  <!-- Definitions -->
  <defs>
    <linearGradient id="gradient1" x1="0%" y1="0%" x2="100%" y2="100%">
      <stop offset="0%" stop-color="#3B82F6"/>
      <stop offset="100%" stop-color="#8B5CF6"/>
    </linearGradient>
    
    <linearGradient id="gradient2" x1="0%" y1="0%" x2="100%" y2="100%">
      <stop offset="0%" stop-color="#8B5CF6"/>
      <stop offset="100%" stop-color="#EC4899"/>
    </linearGradient>
    
    <linearGradient id="gradient3" x1="0%" y1="0%" x2="100%" y2="100%">
      <stop offset="0%" stop-color="#6366F1"/>
      <stop offset="100%" stop-color="#4F46E5"/>
    </linearGradient>
    
    <filter id="blur" x="-50%" y="-50%" width="200%" height="200%">
      <feGaussianBlur in="SourceGraphic" stdDeviation="50"/>
    </filter>
    
    <filter id="shadow" x="-10%" y="-10%" width="120%" height="120%">
      <feDropShadow dx="0" dy="8" stdDeviation="12" flood-opacity="0.15"/>
    </filter>
  </defs>
</svg>